<mxfile host="app.diagrams.net" modified="2023-05-17T09:09:27.029Z" agent="Mozilla/5.0 (Windows NT 10.0; Win64; x64) AppleWebKit/537.36 (KHTML, like Gecko) Chrome/102.0.0.0 Safari/537.36" etag="Kms_e70C1xuXiEk38s2m" version="21.1.2" type="github">
  <diagram name="第 1 页" id="pz1jVyvXg0_LhJZVS1x5">
    <mxGraphModel dx="1434" dy="764" grid="1" gridSize="10" guides="1" tooltips="1" connect="1" arrows="1" fold="1" page="1" pageScale="1" pageWidth="827" pageHeight="1169" math="0" shadow="0">
      <root>
        <mxCell id="0" />
        <mxCell id="1" parent="0" />
        <mxCell id="c1KcH9jsWdKFywQ3Duck-2" value="" style="edgeStyle=orthogonalEdgeStyle;rounded=0;orthogonalLoop=1;jettySize=auto;html=1;" parent="1" source="OPfXbUtbgR2OJTm1OdhY-2" target="OPfXbUtbgR2OJTm1OdhY-3" edge="1">
          <mxGeometry relative="1" as="geometry" />
        </mxCell>
        <mxCell id="OPfXbUtbgR2OJTm1OdhY-2" value="reporter" style="rounded=1;whiteSpace=wrap;html=1;" parent="1" vertex="1">
          <mxGeometry x="820" y="220" width="120" height="60" as="geometry" />
        </mxCell>
        <mxCell id="c1KcH9jsWdKFywQ3Duck-1" value="" style="edgeStyle=orthogonalEdgeStyle;rounded=0;orthogonalLoop=1;jettySize=auto;html=1;" parent="1" source="OPfXbUtbgR2OJTm1OdhY-3" target="OPfXbUtbgR2OJTm1OdhY-11" edge="1">
          <mxGeometry relative="1" as="geometry" />
        </mxCell>
        <mxCell id="OPfXbUtbgR2OJTm1OdhY-3" value="adMethod" style="rounded=1;whiteSpace=wrap;html=1;" parent="1" vertex="1">
          <mxGeometry x="820" y="370" width="120" height="60" as="geometry" />
        </mxCell>
        <mxCell id="OPfXbUtbgR2OJTm1OdhY-10" value="" style="edgeStyle=orthogonalEdgeStyle;rounded=0;orthogonalLoop=1;jettySize=auto;html=1;" parent="1" source="OPfXbUtbgR2OJTm1OdhY-4" target="OPfXbUtbgR2OJTm1OdhY-6" edge="1">
          <mxGeometry relative="1" as="geometry" />
        </mxCell>
        <mxCell id="OPfXbUtbgR2OJTm1OdhY-4" value="main.js" style="rounded=1;whiteSpace=wrap;html=1;" parent="1" vertex="1">
          <mxGeometry x="430" y="370" width="120" height="60" as="geometry" />
        </mxCell>
        <mxCell id="c1KcH9jsWdKFywQ3Duck-3" value="" style="edgeStyle=orthogonalEdgeStyle;rounded=0;orthogonalLoop=1;jettySize=auto;html=1;" parent="1" source="OPfXbUtbgR2OJTm1OdhY-5" target="OPfXbUtbgR2OJTm1OdhY-3" edge="1">
          <mxGeometry relative="1" as="geometry" />
        </mxCell>
        <mxCell id="OPfXbUtbgR2OJTm1OdhY-5" value="nativeAdapter" style="rounded=1;whiteSpace=wrap;html=1;" parent="1" vertex="1">
          <mxGeometry x="820" y="524.5" width="120" height="60" as="geometry" />
        </mxCell>
        <mxCell id="NLvxinnsSZbkFmjJ19od-2" value="" style="edgeStyle=orthogonalEdgeStyle;rounded=0;orthogonalLoop=1;jettySize=auto;html=1;" parent="1" source="OPfXbUtbgR2OJTm1OdhY-6" target="NLvxinnsSZbkFmjJ19od-1" edge="1">
          <mxGeometry relative="1" as="geometry" />
        </mxCell>
        <mxCell id="OPfXbUtbgR2OJTm1OdhY-6" value="index.html" style="rounded=1;whiteSpace=wrap;html=1;" parent="1" vertex="1">
          <mxGeometry x="230" y="370" width="120" height="60" as="geometry" />
        </mxCell>
        <mxCell id="c1KcH9jsWdKFywQ3Duck-4" value="" style="edgeStyle=orthogonalEdgeStyle;rounded=0;orthogonalLoop=1;jettySize=auto;html=1;" parent="1" source="OPfXbUtbgR2OJTm1OdhY-11" target="OPfXbUtbgR2OJTm1OdhY-4" edge="1">
          <mxGeometry relative="1" as="geometry" />
        </mxCell>
        <mxCell id="OPfXbUtbgR2OJTm1OdhY-11" value="App.vue" style="rounded=1;whiteSpace=wrap;html=1;" parent="1" vertex="1">
          <mxGeometry x="630" y="370" width="120" height="60" as="geometry" />
        </mxCell>
        <mxCell id="NLvxinnsSZbkFmjJ19od-3" value="" style="edgeStyle=orthogonalEdgeStyle;rounded=0;orthogonalLoop=1;jettySize=auto;html=1;dashed=1;" parent="1" source="c1KcH9jsWdKFywQ3Duck-5" target="OPfXbUtbgR2OJTm1OdhY-3" edge="1">
          <mxGeometry relative="1" as="geometry" />
        </mxCell>
        <mxCell id="c1KcH9jsWdKFywQ3Duck-5" value="utils" style="rounded=1;whiteSpace=wrap;html=1;" parent="1" vertex="1">
          <mxGeometry x="1010" y="370" width="120" height="60" as="geometry" />
        </mxCell>
        <mxCell id="NLvxinnsSZbkFmjJ19od-1" value="dist" style="rounded=1;whiteSpace=wrap;html=1;" parent="1" vertex="1">
          <mxGeometry x="30" y="370" width="120" height="60" as="geometry" />
        </mxCell>
        <mxCell id="NLvxinnsSZbkFmjJ19od-9" value="" style="endArrow=classic;html=1;rounded=0;entryX=1;entryY=0.5;entryDx=0;entryDy=0;dashed=1;" parent="1" edge="1">
          <mxGeometry width="50" height="50" relative="1" as="geometry">
            <mxPoint x="970" y="249.96" as="sourcePoint" />
            <mxPoint x="940" y="249.96" as="targetPoint" />
          </mxGeometry>
        </mxCell>
        <mxCell id="NLvxinnsSZbkFmjJ19od-10" value="" style="endArrow=classic;html=1;rounded=0;entryX=1;entryY=0.5;entryDx=0;entryDy=0;dashed=1;" parent="1" edge="1">
          <mxGeometry width="50" height="50" relative="1" as="geometry">
            <mxPoint x="970" y="550" as="sourcePoint" />
            <mxPoint x="940" y="550" as="targetPoint" />
          </mxGeometry>
        </mxCell>
        <mxCell id="NLvxinnsSZbkFmjJ19od-11" value="" style="endArrow=none;html=1;rounded=0;dashed=1;" parent="1" edge="1">
          <mxGeometry width="50" height="50" relative="1" as="geometry">
            <mxPoint x="970" y="550" as="sourcePoint" />
            <mxPoint x="970" y="250" as="targetPoint" />
          </mxGeometry>
        </mxCell>
      </root>
    </mxGraphModel>
  </diagram>
</mxfile>
